<?xml version="1.0" encoding="utf-8"?>
<!-- Generator: Adobe Illustrator 24.0.0, SVG Export Plug-In . SVG Version: 6.00 Build 0)  -->
<svg version="1.1" id="Capa_1" xmlns:xodm="http://www.corel.com/coreldraw/odm/2003"
	 xmlns="http://www.w3.org/2000/svg" xmlns:xlink="http://www.w3.org/1999/xlink" x="0px" y="0px" viewBox="0 0 595.3 247.1"
	 style="enable-background:new 0 0 595.3 247.1;" xml:space="preserve">
<style type="text/css">
	.st0{fill:#FFFFFF;}
</style>
<g id="Capa_x0020_1">
	<path class="st0" d="M141.4,184.5c11.6-11.3,15.2-33.9,10.2-48.2c-2.8-8.1-9.9-12.7-18.4-11.5c-2.2,0.3-4.3,0.8-6.1,2.4l0,65.8
		C133.1,191.6,137.3,188.6,141.4,184.5L141.4,184.5z M141.5,107.6c8.6-7.3,7-21.5,2.5-30.1c-3.3-6.4-10.2-9-16.8-6.6l0,44.6
		C132.8,114.6,137.1,111.2,141.5,107.6L141.5,107.6z M50.3,152.7c2.4-7.5,5.2-14.1,12.1-18.6c9.3-6,25.8-8.3,35.9-2l0,7.7l-5.1-1.6
		c-10-3.2-20.3,0.7-26,9.5c-8.1,12.6-7.8,31.1-0.3,43.9c5.2,8.9,13.9,14.8,24.5,15.3c8.5,0.5,17.8-5.6,17.9-14.9l0.4-45.3l0.3-62.6
		c0-4.3,2-14.1-2.7-16l-5.2-8.4l40.3,0.6c8.2,0.1,14.3,7.2,18.2,13.5l3,4.8c2.6,10,3.1,27.9-6.3,34.6c-1.3,0.9-2.4,1.5-3.8,3
		c20.4,11,21.5,32.4,17,52.8c-3.3,15.2-12.2,28.8-27,34.8c-10.5,4.3-21,7.9-32,10.8c-10.7,2.8-25.6,4.9-35.8,0.3
		c-14.3-6.4-24.4-19-27.1-34.6C47,170.9,47.4,161.6,50.3,152.7L50.3,152.7z M424.5,180.1c-0.8-6-2.2-11.7-4.9-17.1l-7.1-14.4l-3-4.1
		l-11.3-24.4c-2.5-5.5-5-10.5-8.8-15.6l-0.1,59l4.7,6.7c3.2,4.5-8.1-0.7-12.3-1.3c-3.7-0.5-7.2-0.1-11-0.3c-0.3-1.9,0.4-4.5,1.7-5.8
		c3-3,2.5-5.8,2.6-9.7l0.5-48.6l-0.2-32.7c0-2.8-3-4.9-4.7-6.7l-1.3-1.3c-0.3-0.3,0.2-1.9,0.8-1.9l19.1,0c1.7,1.1,1.8,3.1,2.4,4.8
		c1.6,4.4,3.8,8.5,6.4,12.5c0.4,0.7,0.6,1.9,1,2.7l16.9,32.6c1.8,3.4,2.4,7,5.5,9.8l0-53.3l-4.3-4.4c-1-1-1.5-2.3-1.6-4.1l24,0
		c0.3,4.1-5.4,6.1-5.4,8.7l0,108.2l3.5,5.6c0.3,0.5,0.3,1.9,0,2.3C435.6,189.5,426.4,181.9,424.5,180.1L424.5,180.1z M489.1,142.7
		c-1.1-4.7,1.8-9.5,6.6-11.4c18.4-7.4,42.7,1.2,49.1,20.7c5.3,16,2.9,33.5-6.9,47.2c-10.4,14.4-27.7,21-45,16.4l-49-22.5
		c-0.6-0.3-1.2-1.3-1.2-1.7c0.3-1.5,6.4-3.9,6.4-7.8L448.9,69c-1.6-2.7-5.7-3.9-5.3-6.7l28.6,0c1,2.7-4.3,4.5-4.3,6.8l-0.2,118.6
		c0,13.3,24.1,22,38.4,18.9c18.5-4.1,30-21.9,28.7-40.3c-0.5-6.9-2.1-12.8-6-18.2c-7.6-10.5-19.4-11.7-31.4-10.4
		C494.2,138.3,491.7,139.8,489.1,142.7L489.1,142.7z M198.3,156.9c23.6-7.9,18-0.6,29.5-23.8c0.6,5.7,0.2,11.7,0.2,17.3l0,17.1
		c-8.7,0.2-16.4,2.1-24.5,4.6l-24.8,7.8c-1.5,0.5-3.4,0.4-4.8,0.1c0-4.7,5.3-7.1,5.8-12.2c1.6-15.8-1-33.7-0.1-50.1l-2.2-2.8
		l2.3-2.8l0-42.1c-1.4-3.1-5.6-4.5-5.2-8.2l44.2-0.1c2.1,0,3.9-2,6.2-0.6v28.5c0,0.4-0.5,1.3-0.7,1.5c-0.2,0.3-1.6,0.1-1.7-0.3
		l-2.2-5.5c-3.4-8.4-14.2-8.6-22.1-7.9l0,28.4c3.7-0.2,7.1,0.5,10.6-0.3c2.4-0.5,5.6-4.3,6.5-6.5l2.2-5.2c1,0.2,1.9,1.6,1.9,2.8
		c0.2,4.7,1.3,33.6-0.8,34.7c-2,1-5.8-9.3-9.4-10.3c-3.1-0.9-7-0.3-11.1-0.3L198.3,156.9z M283.8,134.1c-0.1,3.5-1,29.7-2.9,30.3
		c-2.6,0.8-4.7-1.9-7.1-2.2c-17-1.5-25.7,2.1-41.7,4.3c-0.6-5.6,4.8-9.6,4.8-14.6l-0.1-79c0-3-3-6.9-5.1-8.1l-2.1-1.2
		c-0.5-0.3,0.1-2.4,0.8-2.4c4.4-0.4,9.6-0.2,14.3-0.1l12.7,0.4c1.2,2.1-0.5,5.2-3.3,5.9l0,80.8c6.1-1.1,12.6-0.4,17.8-3.1
		c6-3.1,8-10.4,10.2-16.4C283.7,130.1,283.8,132.3,283.8,134.1L283.8,134.1z M334.8,165.9c-0.9,0.7-3.5,0.9-4.2,0.2l-3.3-3.4
		l-42.3,0c-1.6-5.2,4.2-8,5.7-12.5l0-80.1c-1.1-1.2-8.8-9.3-4.1-9.3l25.5-0.2c0.3,1.6,0.4,3.9-0.4,4.8l-4.1,4.7l0,76.8l15.9,0
		c6.2-3.4,9.2-9.4,12.1-15.9c1.1,1.6,1.4,3.5,1.3,5.2L334.8,165.9L334.8,165.9z M339,164.5c-1.1-3.9,3.6-7.2,4.6-11.1l0-82.3
		c0-5.2-5.5-5.7-5.3-8.7l10.6-0.1c5.8-0.1,11.2-1.2,17.2-0.1c0.3,2.7-4.4,5.5-5.7,9l0,86.8l5.6,9c-4.3,0.4-7.3-1.1-11-1.6
		C349.9,164.4,344.9,164.6,339,164.5z M245.4,41.2v-3.8c0-0.9-0.2-1.6-0.5-2.1c-0.4-0.5-1-0.7-1.9-0.7h-1.5v8.8l0.8,0
		C244.4,43.4,245.4,42.7,245.4,41.2L245.4,41.2z M243.1,29.8c0.7,0,1.2-0.2,1.4-0.6c0.2-0.4,0.4-0.9,0.4-1.6v-3c0-1-0.6-1.5-1.7-1.5
		h-1.7v6.7H243.1L243.1,29.8z M233.6,18.4h10.9c2.9,0,5.1,0.5,6.4,1.6c1.3,1.1,2,2.8,2,5.3v1.3c0,2.9-1.4,4.6-4.1,5.2
		c1.7,0.3,2.9,1.1,3.6,2.3c0.7,1.2,1,2.8,1,4.8c0,3.2-0.6,5.7-1.9,7.3c-1.3,1.7-3.6,2.5-6.9,2.5h-10.9L233.6,18.4L233.6,18.4z
		 M258.4,48.7V18.4h16.1v5.9h-7.9v5.9h7.6v5.7h-7.6v7h8.4v5.9H258.4z M283.5,48.7V24.3h-4.8v-5.8h17.6v5.8h-4.8v24.5H283.5z
		 M301,48.7V18.4h8v10.8h3.8V18.4h8v30.3h-8V35H309v13.8H301z M326.7,48.7V18.4h16.1v5.9h-7.9v5.9h7.6v5.7h-7.6v7h8.4v5.9H326.7z
		 M348.4,48.7V18.4h8.1v25.2h8.3v5.2H348.4z M224,197.3v-2.7c0-0.6-0.1-1.1-0.4-1.5c-0.3-0.3-0.7-0.5-1.3-0.5h-1.1v6.2l0.6,0
		C223.3,198.9,224,198.3,224,197.3L224,197.3z M222.4,189.3c0.5,0,0.8-0.1,1-0.4c0.2-0.3,0.3-0.7,0.3-1.2v-2.1c0-0.7-0.4-1-1.2-1
		h-1.2v4.8H222.4z M215.7,181.2h7.7c2.1,0,3.6,0.4,4.5,1.1c0.9,0.8,1.4,2,1.4,3.7v0.9c0,2-1,3.3-2.9,3.7c1.2,0.2,2,0.8,2.5,1.6
		c0.5,0.8,0.7,2,0.7,3.4c0,2.3-0.5,4-1.4,5.2c-0.9,1.2-2.5,1.8-4.9,1.8h-7.7L215.7,181.2L215.7,181.2z M233.2,202.6v-21.4h11.4v4.1
		H239v4.2h5.4v4H239v4.9h5.9v4.2H233.2z M254,195.7h2.6l-1.3-10.9H255L254,195.7z M247.7,202.6l2.7-21.4h9.6l2.7,21.4h-5.4l-0.4-3.5
		h-3.4l-0.3,3.5L247.7,202.6L247.7,202.6z M267.8,201.3c-1.2-1-1.9-2.3-1.9-4v-9.9c0-2.1,0.6-3.7,1.7-4.8c1.1-1.1,2.9-1.6,5.3-1.6
		c2.1,0,3.8,0.4,5.1,1.3c1.3,0.9,1.9,2.1,1.9,3.7v3.7h-5.7v-3.2c0-0.6-0.1-1-0.3-1.3c-0.2-0.2-0.5-0.3-1-0.3c-0.5,0-0.9,0.1-1,0.4
		c-0.2,0.3-0.3,0.7-0.3,1.2v10.7c0,0.6,0.1,1,0.3,1.2c0.2,0.3,0.6,0.4,1,0.4c0.9,0,1.3-0.5,1.3-1.6v-3.9h5.7v4
		c0,3.6-2.4,5.4-7.2,5.4C270.7,202.8,269,202.3,267.8,201.3L267.8,201.3z M283.4,202.6v-21.4h5.7v7.6h2.7v-7.6h5.7v21.4h-5.7v-9.7
		h-2.7v9.7L283.4,202.6L283.4,202.6z M312.6,201.3c-1.2-1-1.9-2.3-1.9-4v-9.9c0-2.1,0.6-3.7,1.7-4.8c1.1-1.1,2.9-1.6,5.3-1.6
		c2.1,0,3.8,0.4,5.1,1.3c1.3,0.9,1.9,2.1,1.9,3.7v3.7H319v-3.2c0-0.6-0.1-1-0.3-1.3c-0.2-0.2-0.5-0.3-1-0.3c-0.5,0-0.9,0.1-1,0.4
		c-0.2,0.3-0.3,0.7-0.3,1.2v10.7c0,0.6,0.1,1,0.3,1.2c0.2,0.3,0.6,0.4,1,0.4c0.9,0,1.3-0.5,1.3-1.6v-3.9h5.7v4
		c0,3.6-2.4,5.4-7.2,5.4C315.5,202.8,313.8,202.3,312.6,201.3L312.6,201.3z M328.3,202.6v-21.4h5.7V199h5.8v3.6H328.3L328.3,202.6z
		 M344.4,201.3c-1.1-1-1.7-2.5-1.7-4.4v-15.6h5.5v15.5c0,0.7,0.1,1.2,0.3,1.6c0.2,0.4,0.6,0.6,1.1,0.6c0.6,0,0.9-0.2,1.1-0.6
		c0.2-0.4,0.3-0.9,0.3-1.6v-15.5h5.5v15.6c0,2-0.6,3.4-1.7,4.4c-1.1,1-2.9,1.5-5.2,1.5C347.3,202.8,345.6,202.3,344.4,201.3z
		 M368.7,197.3v-2.7c0-0.6-0.1-1.1-0.4-1.5c-0.3-0.3-0.7-0.5-1.3-0.5h-1.1v6.2l0.6,0C368,198.9,368.7,198.3,368.7,197.3L368.7,197.3
		z M367.1,189.3c0.5,0,0.8-0.1,1-0.4c0.2-0.3,0.3-0.7,0.3-1.2v-2.1c0-0.7-0.4-1-1.2-1h-1.2v4.8H367.1z M360.4,181.2h7.7
		c2.1,0,3.6,0.4,4.5,1.1c0.9,0.8,1.4,2,1.4,3.7v0.9c0,2-1,3.3-2.9,3.7c1.2,0.2,2,0.8,2.5,1.6c0.5,0.8,0.7,2,0.7,3.4
		c0,2.3-0.5,4-1.4,5.2c-0.9,1.2-2.5,1.8-4.9,1.8h-7.7V181.2L360.4,181.2z"/>
	<path class="st0" d="M255.6,218.2H251v-2.5c0-0.7,0-1.2-0.1-1.4c-0.1-0.2-0.3-0.3-0.6-0.3c-0.4,0-0.6,0.1-0.7,0.3
		c-0.1,0.2-0.2,0.7-0.2,1.4v6.7c0,0.7,0.1,1.2,0.2,1.4c0.1,0.2,0.3,0.3,0.7,0.3c0.3,0,0.6-0.1,0.7-0.3c0.1-0.2,0.2-0.7,0.2-1.5v-1.8
		h4.6v0.6c0,1.5-0.1,2.5-0.4,3.2c-0.3,0.6-0.8,1.2-1.7,1.6c-0.9,0.5-2,0.7-3.3,0.7c-1.3,0-2.5-0.2-3.3-0.6c-0.9-0.4-1.5-0.9-1.7-1.6
		c-0.3-0.7-0.4-1.8-0.4-3.2V217c0-1,0-1.8,0.1-2.3c0.1-0.5,0.3-1,0.8-1.5c0.4-0.5,1-0.9,1.8-1.1c0.8-0.3,1.6-0.4,2.6-0.4
		c1.4,0,2.5,0.2,3.4,0.6c0.9,0.4,1.5,1,1.7,1.6c0.3,0.6,0.4,1.6,0.4,3V218.2L255.6,218.2z M265.1,211.9l2.6,14.3h-4.7l-0.2-2.6h-1.7
		l-0.2,2.6h-4.8l2.3-14.3H265.1L265.1,211.9z M262.7,221.2c-0.2-1.6-0.5-3.6-0.7-6c-0.5,2.8-0.7,4.8-0.9,6H262.7z M268.5,211.9h3.2
		c2.2,0,3.6,0.1,4.4,0.2c0.8,0.1,1.4,0.5,1.9,1c0.5,0.6,0.7,1.4,0.7,2.7c0,1.1-0.2,1.9-0.5,2.2c-0.3,0.4-1,0.6-2,0.7
		c0.9,0.2,1.5,0.4,1.8,0.7c0.3,0.3,0.5,0.6,0.6,0.8c0.1,0.3,0.1,1,0.1,2.1v3.8h-4.3v-4.8c0-0.8-0.1-1.2-0.2-1.4
		c-0.1-0.2-0.5-0.3-1.2-0.3v6.5h-4.6V211.9L268.5,211.9z M273.1,214.4v3.2c0.5,0,0.9-0.1,1.1-0.2c0.2-0.1,0.3-0.5,0.3-1.1v-0.8
		c0-0.5-0.1-0.8-0.3-0.9C274,214.4,273.7,214.4,273.1,214.4L273.1,214.4z M289.8,211.9v2.9h-2.7v11.5h-4.6v-11.5h-2.7v-2.9H289.8
		L289.8,211.9z M297.9,211.9l2.6,14.3h-4.7l-0.2-2.6h-1.7l-0.2,2.6h-4.8l2.3-14.3H297.9L297.9,211.9z M295.5,221.2
		c-0.2-1.6-0.5-3.6-0.7-6c-0.5,2.8-0.7,4.8-0.9,6H295.5L295.5,221.2z M311.8,217.2h-4.6v-1.3c0-0.8,0-1.3-0.1-1.5
		c-0.1-0.2-0.3-0.3-0.6-0.3c-0.3,0-0.5,0.1-0.6,0.3c-0.1,0.2-0.1,0.6-0.1,1.4v6.9c0,0.6,0,1.1,0.1,1.3c0.1,0.2,0.3,0.3,0.6,0.3
		c0.3,0,0.5-0.1,0.7-0.3c0.1-0.2,0.2-0.7,0.2-1.3v-1.7h-0.9v-2.2h5.4v7.7h-2.9l-0.4-1c-0.3,0.4-0.7,0.8-1.2,1
		c-0.5,0.2-1,0.3-1.7,0.3c-0.8,0-1.5-0.2-2.2-0.5c-0.7-0.3-1.2-0.7-1.5-1.1c-0.3-0.4-0.6-0.9-0.7-1.4c-0.1-0.5-0.1-1.2-0.1-2.2v-4.3
		c0-1.4,0.1-2.4,0.3-3c0.2-0.6,0.7-1.2,1.6-1.7c0.9-0.5,2-0.8,3.3-0.8c1.3,0,2.5,0.2,3.3,0.7c0.9,0.5,1.5,1,1.7,1.6
		c0.3,0.6,0.4,1.5,0.4,2.7V217.2L311.8,217.2z M313.6,211.9h7.7v2.9h-3.1v2.7h2.9v2.7h-2.9v3.2h3.4v2.9h-8L313.6,211.9L313.6,211.9z
		 M333.2,211.9v14.3h-4l-2.4-6.5v6.5h-3.8v-14.3h3.8l2.6,6.5v-6.5H333.2z M342.9,211.9l2.6,14.3h-4.7l-0.2-2.6H339l-0.2,2.6H334
		l2.3-14.3H342.9z M340.5,221.2c-0.2-1.6-0.5-3.6-0.7-6c-0.5,2.8-0.7,4.8-0.9,6H340.5L340.5,221.2z"/>
</g>
</svg>
